<svg xmlns="http://www.w3.org/2000/svg" viewBox="0 0 900.14 376.07"><g id="Camada_2" data-name="Camada 2"><g id="Camada_1-2" data-name="Camada 1"><rect x="16.42" y="16.42" width="316.77" height="316.77" rx="32.07" transform="translate(-22.72 26.16) rotate(-8.04)" style="fill:#444394"/><path d="M348.29,74.59v207c0,1.49-.06,3-.19,4.42v90.05s-10.44-41-48-43.27c-1,.07-2.07.1-3.11.1H69.5a51.3,51.3,0,0,1-51.31-51.3v-207A51.31,51.31,0,0,1,69.5,23.28H297A51.3,51.3,0,0,1,348.29,74.59Z" style="fill:#e9edff"/><rect x="366.4" y="118.14" width="216.79" height="201.84" rx="33.57" transform="translate(40.34 -71.92) rotate(9.04)" style="fill:#e9edff"/><g id="a6558fe5-ccb8-47c7-a172-7ececf87f5b0"><path d="M157.37,76v45.74H100.12V80.81A4.79,4.79,0,0,1,104.91,76h52.46Z" style="fill:#fbae17"/><path d="M157.33,121.74H105.86l-.06-.09c1.75-4.82,4.15-7.87,7.14-12.06,7.43-10.12,17.44-16.56,29-21.51a90.26,90.26,0,0,1,14.09-5l1.36-.34Z" style="fill:#444394"/><path d="M280.67,123.83a89.08,89.08,0,0,0-38.32-36.16q-24.91-12.58-59.83-12.58H170.39v45.42c15.32-4,35.33-1,46.65,7.7a45,45,0,0,1,3.69,2.63,42.8,42.8,0,0,1,6.83,6.89,43.35,43.35,0,0,1,2.83,4,45.17,45.17,0,0,1,2.42,4.42,49.51,49.51,0,0,1,2.06,4.8q.94,2.57,1.66,5.2c.5,1.85.92,3.71,1.27,5.6s.69,4,.91,6q.39,3.33.54,6.66c0,.21,0,.42,0,.62a8.81,8.81,0,0,1-.13,1.54l-.16.55-.51-.3a100.1,100.1,0,0,0-10.79-5.21,182.32,182.32,0,0,0-34.78-10.13,178.55,178.55,0,0,1-25.6-6.92,26.83,26.83,0,0,1-11.43-6.92,12.49,12.49,0,0,1-3-8.13,17,17,0,0,1,.13-2h-52.9V281.13a4.78,4.78,0,0,0,4.79,4.79h78.41A169.52,169.52,0,0,0,207,284.26a115.57,115.57,0,0,0,35.77-10.88,88,88,0,0,0,38.13-36.29q13.23-23.67,13.24-56.85Q294,147.36,280.67,123.83ZM173.91,204.32a167.55,167.55,0,0,1,24.21,6.59,28.33,28.33,0,0,1,11.57,7,13.41,13.41,0,0,1,3.15,8.47,12.66,12.66,0,0,1-4.3,9.69,18.23,18.23,0,0,1-4.49,3.26q-8.88,4.78-26.09,4.78H175.3a62,62,0,0,1-21.87-2.85l-1.21-.4V199.15C158.69,201,165.92,202.75,173.91,204.32Z" style="fill:#444394"/></g><path d="M544.71,119.26l-150.38-.8a33.91,33.91,0,0,0-34.09,33.73l-.71,131.46h0l-.39,73s8.7-33.38,39.72-33.22l144.76.54a33.92,33.92,0,0,0,34.08-33.74l.73-136.83A33.9,33.9,0,0,0,544.71,119.26Zm-15.54,69.28-41.43-.29L487,298l-37.5-.26L450.24,188l-41.18-.29.23-32.65,120.11.85Z" style="fill:#444394"/><path d="M721.07,271.76l-.28,52.69-31.94-.17.09-16.76h-.46a31.67,31.67,0,0,1-13.62,14.19Q665.47,327,653,326.92a55.6,55.6,0,0,1-18.85-3.48,61.58,61.58,0,0,1-17.53-10q-8.19-6.57-13.21-17.92a61.38,61.38,0,0,1-5-25.5q.14-24.6,17.46-40.52t44.4-15.76q27.32.15,44.12,15.91T721.07,271.76Zm-80.28,17.32q7.25,7.34,19.05,7.39T679,289.28q7.34-7.25,7.39-18.79t-7.19-18.87q-7.24-7.34-19-7.4T641,251.41q-7.34,7.26-7.39,18.79T640.79,289.08Z" style="fill:#444394"/><path d="M768,324.7l-34.72-.18.83-154.58,34.71.18Z" style="fill:#444394"/><path d="M818.91,325l-34.71-.19L785,170.21l34.72.18-.49,91.66.5,0,36.07-44.48,43,.24-46.79,52.43,48.07,55.13-44-.23-36.5-46h-.52Z" style="fill:#444394"/></g></g></svg>