<svg xmlns="http://www.w3.org/2000/svg" width="566" height="349" fill="none" xmlns:v="https://vecta.io/nano"><style><![CDATA[.B{stroke:#000}.C{stroke-opacity:.15}.D{stroke-width:2}.E{stroke-linejoin:round}.F{opacity:.5}.G{fill-opacity:.15}.H{fill-rule:evenodd}.I{color-interpolation-filters:sRGB}]]></style><g clip-path="url(#D)"><ellipse cx="283" cy="174.5" rx="283" ry="174.5" fill="url(#C)"/><g class="F B C D E"><path d="M427.738 111.244l-2.447 6.729a.84.84 0 0 1-.309.399.85.85 0 0 1-.482.151c-.172 0-.341-.053-.482-.151a.84.84 0 0 1-.309-.399l-2.447-6.729c-.043-.116-.11-.221-.198-.309s-.192-.154-.308-.197l-6.729-2.447a.84.84 0 0 1-.55-.791.84.84 0 0 1 .55-.791l6.729-2.447c.116-.043.221-.11.308-.197s.155-.193.198-.309l2.447-6.729c.06-.161.168-.301.309-.399s.31-.151.482-.151.34.053.482.151.249.238.309.399l2.447 6.729c.042.116.11.221.197.309a.87.87 0 0 0 .309.197l6.729 2.447c.161.06.301.168.399.309a.85.85 0 0 1 0 .964c-.098.141-.238.249-.399.309l-6.729 2.447a.87.87 0 0 0-.309.197c-.087.088-.155.193-.197.309h0z"/></g><g opacity=".3" class="B C D E"><path d="M195.019 48.412l-1.903 5.234a.66.66 0 0 1-.241.31c-.11.077-.241.117-.375.117s-.264-.041-.374-.117a.66.66 0 0 1-.241-.31l-1.903-5.234a.66.66 0 0 0-.154-.24c-.068-.068-.15-.12-.24-.154l-5.233-1.903a.66.66 0 0 1-.428-.615.66.66 0 0 1 .428-.615l5.233-1.903c.09-.033.172-.086.24-.154a.66.66 0 0 0 .154-.24l1.903-5.234a.66.66 0 0 1 .241-.31c.11-.077.24-.117.374-.117s.265.041.375.117a.66.66 0 0 1 .241.31l1.903 5.234a.66.66 0 0 0 .153.24c.068.068.15.12.24.154l5.234 1.903a.65.65 0 0 1 .31.241c.077.11.118.241.118.375s-.041.265-.118.375a.65.65 0 0 1-.31.241l-5.234 1.903c-.09.033-.172.086-.24.154a.66.66 0 0 0-.153.24h0z"/></g><g class="F B C D E"><path d="M96.259 244.689l-2.084 5.732c-.051.138-.143.257-.263.34a.72.72 0 0 1-.41.129c-.147 0-.29-.045-.41-.129s-.212-.202-.264-.34l-2.084-5.732a.74.74 0 0 0-.431-.431l-5.732-2.084c-.138-.051-.256-.143-.34-.264s-.129-.263-.129-.41.045-.29.129-.41.202-.213.34-.264l5.732-2.084a.74.74 0 0 0 .431-.431l2.084-5.732c.051-.138.143-.257.264-.34s.264-.129.41-.129a.72.72 0 0 1 .41.129c.12.083.212.202.263.34l2.084 5.732a.74.74 0 0 0 .431.431l5.732 2.084c.138.051.256.143.34.264s.129.263.129.41-.045.29-.129.41-.202.213-.34.264l-5.732 2.084a.74.74 0 0 0-.431.431h0z"/></g><g class="F B C D E"><path d="M146.539 270.857l-1.541 4.237a.53.53 0 0 1-.498.347.53.53 0 0 1-.498-.347l-1.541-4.237c-.026-.073-.069-.139-.124-.194s-.121-.097-.194-.124l-4.237-1.541a.53.53 0 0 1-.346-.498.53.53 0 0 1 .346-.498l4.237-1.541c.073-.027.139-.069.194-.124s.098-.121.124-.194l1.541-4.237a.53.53 0 0 1 .498-.347.53.53 0 0 1 .498.347l1.541 4.237c.027.073.069.139.124.194s.121.097.195.124l4.236 1.541c.102.038.19.106.252.195a.54.54 0 0 1 .095.303.54.54 0 0 1-.095.303c-.062.089-.15.157-.252.195l-4.236 1.541c-.074.027-.14.069-.195.124s-.097.121-.124.194h0z"/></g><g class="F B C D E"><path d="M341.399 62.773l-1.813 4.984a.62.62 0 0 1-.229.296c-.105.073-.229.112-.357.112s-.252-.039-.357-.112-.184-.176-.229-.296l-1.812-4.984c-.032-.086-.082-.164-.146-.229s-.143-.115-.229-.146l-4.985-1.812c-.119-.044-.222-.124-.295-.229s-.112-.229-.112-.357.039-.252.112-.357.176-.185.295-.229l4.985-1.812c.086-.032.164-.081.229-.146s.114-.143.146-.229l1.812-4.984c.045-.12.125-.223.229-.296a.63.63 0 0 1 .357-.112c.128 0 .252.039.357.112a.62.62 0 0 1 .229.296l1.813 4.984a.62.62 0 0 0 .146.229c.065.065.143.115.229.146l4.984 1.813c.12.044.223.124.296.229s.112.229.112.357-.039.252-.112.357-.176.185-.296.229l-4.984 1.813c-.086.032-.164.082-.229.146a.62.62 0 0 0-.146.229h0z"/></g><g opacity=".3" class="B C D E"><path d="M452.5 140.125c3.107 0 5.625-2.518 5.625-5.625s-2.518-5.625-5.625-5.625-5.625 2.518-5.625 5.625 2.518 5.625 5.625 5.625z"/></g><g class="F B C D E"><path d="M151 228.5a7.5 7.5 0 1 0 0-15 7.5 7.5 0 1 0 0 15z"/></g><g class="F B C D E"><path d="M398 304.5a7.5 7.5 0 1 0 0-15 7.5 7.5 0 1 0 0 15z"/></g><g class="F B C D E"><path d="M460 82a3 3 0 1 0 0-6 3 3 0 1 0 0 6z"/></g><g class="F B C D E"><path d="M233 53a3 3 0 1 0 0-6 3 3 0 1 0 0 6z"/></g><g filter="url(#A)"><rect x="179.149" y="159.269" width="299.851" height="134.567" rx="20" fill="#f5f5f5"/></g><g fill="#000"><rect width="77.522" height="10.97" rx="5.485" transform="matrix(-1 0 0 1 285.925 206.075)" class="G"/><rect width="178.448" height="10.97" rx="5.485" transform="matrix(-1 0 0 1 386.851 236.791)" fill-opacity=".06"/><circle cx="23.403" cy="23.403" r="23.403" transform="matrix(-1 0 0 1 449.746 188.522)" class="G"/></g><path d="M431.463 209a5.12 5.12 0 0 0-5.12-5.119 5.12 5.12 0 0 0-5.119 5.119 5.12 5.12 0 0 0 5.044 5.119h.075.076a5.12 5.12 0 0 0 5.044-5.119zm-1.743 5.651c1.92-1.15 3.205-3.25 3.205-5.651 0-3.635-2.946-6.582-6.582-6.582s-6.582 2.947-6.582 6.582a6.58 6.58 0 0 0 3.206 5.651 10.97 10.97 0 0 0-6.125 4.954c-.201.349-.082.797.268.999a.73.73 0 0 0 .999-.268c.835-1.446 2.035-2.646 3.48-3.481 1.423-.821 3.033-1.26 4.675-1.273h.079.08a9.5 9.5 0 0 1 4.674 1.273 9.51 9.51 0 0 1 3.481 3.481.73.73 0 0 0 1.266-.731 10.96 10.96 0 0 0-4.015-4.016 10.97 10.97 0 0 0-2.109-.938z" fill="#fff" class="H"/><g filter="url(#B)"><rect x="87" y="62" width="299.851" height="134.567" rx="20" fill="#fff"/></g><g fill="#000"><rect x="179.149" y="108.806" width="77.522" height="10.97" rx="5.485" class="G"/><rect x="179.149" y="139.522" width="178.448" height="10.97" rx="5.485" fill-opacity=".06"/><circle cx="139.657" cy="114.657" r="23.403" class="G"/></g><path d="M134.537 111.731a5.12 5.12 0 0 1 5.12-5.119 5.12 5.12 0 0 1 5.119 5.119 5.12 5.12 0 0 1-5.044 5.119h-.075-.076a5.12 5.12 0 0 1-5.044-5.119zm1.743 5.651c-1.92-1.149-3.205-3.25-3.205-5.651 0-3.635 2.946-6.582 6.582-6.582s6.582 2.947 6.582 6.582a6.58 6.58 0 0 1-3.206 5.652c.731.236 1.438.55 2.109.937a10.97 10.97 0 0 1 4.016 4.016.73.73 0 0 1-1.267.731c-.835-1.445-2.035-2.646-3.48-3.48-1.423-.822-3.033-1.26-4.675-1.274h-.079-.08a9.5 9.5 0 0 0-4.674 1.274 9.51 9.51 0 0 0-3.481 3.48.73.73 0 1 1-1.266-.731 10.96 10.96 0 0 1 4.015-4.016 11.03 11.03 0 0 1 2.109-.938z" fill="#fff" class="H"/></g><defs><filter id="A" x="143.149" y="132.269" width="371.851" height="206.567" filterUnits="userSpaceOnUse" class="I"><feFlood flood-opacity="0" result="A"/><feColorMatrix in="SourceAlpha" values="0 0 0 0 0 0 0 0 0 0 0 0 0 0 0 0 0 0 127 0" result="B"/><feOffset dy="6"/><feGaussianBlur stdDeviation="8"/><feComposite in2="B" operator="out"/><feColorMatrix values="0 0 0 0 0 0 0 0 0 0 0 0 0 0 0 0 0 0 0.08 0"/><feBlend in2="A" result="C"/><feColorMatrix in="SourceAlpha" values="0 0 0 0 0 0 0 0 0 0 0 0 0 0 0 0 0 0 127 0" result="B"/><feMorphology radius="4" in="SourceAlpha" result="D"/><feOffset dy="3"/><feGaussianBlur stdDeviation="3"/><feComposite in2="B" operator="out"/><feColorMatrix values="0 0 0 0 0 0 0 0 0 0 0 0 0 0 0 0 0 0 0.12 0"/><feBlend in2="C" result="D"/><feColorMatrix in="SourceAlpha" values="0 0 0 0 0 0 0 0 0 0 0 0 0 0 0 0 0 0 127 0" result="B"/><feMorphology radius="8" operator="dilate" in="SourceAlpha"/><feOffset dy="9"/><feGaussianBlur stdDeviation="14"/><feComposite in2="B" operator="out"/><feColorMatrix values="0 0 0 0 0 0 0 0 0 0 0 0 0 0 0 0 0 0 0.05 0"/><feBlend in2="D"/><feBlend in="SourceGraphic"/></filter><filter id="B" x="51" y="35" width="371.851" height="206.567" filterUnits="userSpaceOnUse" class="I"><feFlood flood-opacity="0" result="A"/><feColorMatrix in="SourceAlpha" values="0 0 0 0 0 0 0 0 0 0 0 0 0 0 0 0 0 0 127 0" result="B"/><feOffset dy="6"/><feGaussianBlur stdDeviation="8"/><feComposite in2="B" operator="out"/><feColorMatrix values="0 0 0 0 0 0 0 0 0 0 0 0 0 0 0 0 0 0 0.08 0"/><feBlend in2="A" result="C"/><feColorMatrix in="SourceAlpha" values="0 0 0 0 0 0 0 0 0 0 0 0 0 0 0 0 0 0 127 0" result="B"/><feMorphology radius="4" in="SourceAlpha" result="D"/><feOffset dy="3"/><feGaussianBlur stdDeviation="3"/><feComposite in2="B" operator="out"/><feColorMatrix values="0 0 0 0 0 0 0 0 0 0 0 0 0 0 0 0 0 0 0.12 0"/><feBlend in2="C" result="D"/><feColorMatrix in="SourceAlpha" values="0 0 0 0 0 0 0 0 0 0 0 0 0 0 0 0 0 0 127 0" result="B"/><feMorphology radius="8" operator="dilate" in="SourceAlpha"/><feOffset dy="9"/><feGaussianBlur stdDeviation="14"/><feComposite in2="B" operator="out"/><feColorMatrix values="0 0 0 0 0 0 0 0 0 0 0 0 0 0 0 0 0 0 0.05 0"/><feBlend in2="D"/><feBlend in="SourceGraphic"/></filter><radialGradient id="C" cx="0" cy="0" r="1" gradientUnits="userSpaceOnUse" gradientTransform="translate(283 174.5) rotate(90) scale(174.5 283)"><stop stop-color="#fff"/><stop offset=".51" stop-color="#fff" stop-opacity=".28"/><stop offset="1" stop-color="#fff" stop-opacity="0"/></radialGradient><clipPath id="D"><path fill="#fff" d="M0 0h566v349H0z"/></clipPath></defs></svg>